<svg width="23" height="12" viewBox="0 0 23 12" fill="none" xmlns="http://www.w3.org/2000/svg">
<path d="M6.65219 11.24C5.81219 11.24 5.03219 11.11 4.31219 10.85C3.60219 10.58 2.98219 10.2 2.45219 9.71C1.93219 9.22 1.52719 8.64 1.23719 7.97C0.947188 7.3 0.802188 6.56 0.802188 5.75C0.802188 4.94 0.947188 4.2 1.23719 3.53C1.52719 2.86 1.93219 2.28 2.45219 1.79C2.98219 1.3 3.60219 0.924999 4.31219 0.665C5.03219 0.395 5.81219 0.26 6.65219 0.26C7.68219 0.26 8.59219 0.44 9.38219 0.8C10.1822 1.16 10.8422 1.68 11.3622 2.36L9.12719 4.355C8.81719 3.965 8.47219 3.665 8.09219 3.455C7.72219 3.235 7.30219 3.125 6.83219 3.125C6.46219 3.125 6.12719 3.185 5.82719 3.305C5.52719 3.425 5.26719 3.6 5.04719 3.83C4.83719 4.06 4.67219 4.34 4.55219 4.67C4.43219 4.99 4.37219 5.35 4.37219 5.75C4.37219 6.15 4.43219 6.515 4.55219 6.845C4.67219 7.165 4.83719 7.44 5.04719 7.67C5.26719 7.9 5.52719 8.075 5.82719 8.195C6.12719 8.315 6.46219 8.375 6.83219 8.375C7.30219 8.375 7.72219 8.27 8.09219 8.06C8.47219 7.84 8.81719 7.535 9.12719 7.145L11.3622 9.14C10.8422 9.81 10.1822 10.33 9.38219 10.7C8.59219 11.06 7.68219 11.24 6.65219 11.24ZM17.1693 11L18.4743 0.499999H20.8743L19.5693 11H17.1693ZM11.7243 8.945V6.695H21.9243V8.945H11.7243ZM13.2843 11L14.5893 0.499999H16.9893L15.6843 11H13.2843ZM12.2343 4.805V2.555H22.4343V4.805H12.2343Z" fill="white"/>
</svg>
