<svg width="10" height="12" viewBox="0 0 10 12" fill="none" xmlns="http://www.w3.org/2000/svg">
<path d="M7.50037 4.00078C8.16331 4.00078 8.7991 3.79003 9.26787 3.41488C9.73665 3.03973 10 2.53093 10 2.00039C10 1.46985 9.73665 0.961047 9.26787 0.585901C8.7991 0.210755 8.16331 0 7.50037 0L2.5011 0C1.83854 0 1.20312 0.210631 0.734626 0.585558C0.266129 0.960484 0.00292937 1.46899 0.00292937 1.99922C0.00292937 2.52944 0.266129 3.03795 0.734626 3.41288C1.20312 3.78781 1.83854 3.99844 2.5011 3.99844C1.83815 3.99844 1.20236 4.20919 0.733591 4.58434C0.264819 4.95948 0.00146505 5.46829 0.00146505 5.99883C0.00146505 6.52936 0.264819 7.03817 0.733591 7.41332C1.20236 7.78846 1.83815 7.99922 2.5011 7.99922C2.00672 7.99899 1.52335 8.11608 1.11213 8.33569C0.700907 8.55531 0.380294 8.86757 0.190835 9.23301C0.00137629 9.59844 -0.0484192 10.0006 0.0477457 10.3887C0.143911 10.7768 0.381717 11.1333 0.731092 11.4133C1.08047 11.6932 1.52572 11.8839 2.01054 11.9613C2.49537 12.0387 2.99799 11.9994 3.45485 11.8482C3.91171 11.697 4.30229 11.4408 4.57719 11.1119C4.85209 10.7831 4.99898 10.3964 4.99927 10.0008V4.00078H7.50037ZM7.50037 4.00078C7.00628 4.00078 6.52328 4.11803 6.11246 4.33771C5.70164 4.55739 5.38144 4.86962 5.19236 5.23493C5.00328 5.60024 4.95381 6.00222 5.0502 6.39003C5.14659 6.77784 5.38452 7.13407 5.73389 7.41366C6.08327 7.69326 6.5284 7.88366 7.013 7.9608C7.49759 8.03794 7.99989 7.99835 8.45637 7.84704C8.91286 7.69572 9.30301 7.43948 9.57752 7.11071C9.85202 6.78194 9.99854 6.39541 9.99854 6C9.99846 5.46979 9.73523 4.96132 9.26675 4.58641C8.79827 4.21149 8.1629 4.00084 7.50037 4.00078Z" fill="white"/>
</svg>
