<svg width="12" height="12" viewBox="0 0 12 12" fill="none" xmlns="http://www.w3.org/2000/svg">
<path d="M12 9.68402L6.525 11.8936C6.15 12.0355 5.775 12.0355 5.4 11.8936L0 9.68402L9.7875 2.50966L10.05 2.4551C10.275 2.4551 10.4025 2.52603 10.425 2.67333L12 9.68402ZM4.0125 2.61878L0.6 6.7379L2.025 0.218231C2.0475 0.0709252 2.175 0 2.4 0C2.55 0 2.6475 0.0327347 2.7 0.136395L4.3125 2.29143L4.0125 2.61878ZM7.3875 3.30621L0.225 8.5383L5.6625 1.82769C5.7375 1.71857 5.85 1.66947 6 1.66947C6.15 1.66947 6.2475 1.71857 6.3 1.82769L7.3875 3.30621Z" fill="white"/>
</svg>
