<svg width="18" height="14" viewBox="0 0 18 14" fill="none" xmlns="http://www.w3.org/2000/svg">
<path d="M12.3045 1.41904C12.2168 1.41904 12.1583 1.43256 12.0992 1.44931V1.45962H12.1082C12.1493 1.54658 12.2168 1.61421 12.2691 1.69473C12.3101 1.78556 12.345 1.87896 12.3833 1.96979L12.3951 1.95626C12.4654 1.89893 12.5008 1.80875 12.5008 1.6709C12.4716 1.63032 12.4654 1.58716 12.4395 1.5498C12.4103 1.49247 12.3456 1.46284 12.3045 1.41904ZM4.32689 12.7516H3.63274C3.61172 11.4864 3.54434 10.2228 3.43079 8.96401H3.42517L2.36764 12.7516H1.83718L0.788087 8.96401H0.779087C0.697559 10.2246 0.648786 11.4877 0.632832 12.7516H0C0.0342664 11.1633 0.136957 9.57778 0.307697 8.001H1.16891L2.17076 11.4904H2.17638L3.18722 8.001H4.00738C4.18907 9.73248 4.29763 11.3158 4.3297 12.7516H4.32689ZM7.3386 9.24615C7.05735 11.004 6.68215 12.2827 6.22257 13.0776C5.85918 13.6915 5.46373 14 5.03284 14C4.91865 14 4.77802 13.9594 4.60814 13.8789V13.4563C4.69308 13.4699 4.78984 13.4795 4.8984 13.4795C5.10035 13.4795 5.26179 13.4125 5.38498 13.2882C5.53124 13.1336 5.60493 12.9597 5.60493 12.7684C5.60493 12.6344 5.54924 12.3658 5.43223 11.9567L4.6734 9.24615H5.35629L5.90137 11.2727C6.02456 11.7358 6.07744 12.0547 6.05381 12.2389C6.35532 11.3261 6.56346 10.3264 6.68102 9.24615H7.3386ZM16.5847 12.7516H14.6103V8.001H15.2752V12.168H16.5847V12.7516ZM14.0944 12.8663L13.3328 12.4366C13.4003 12.3729 13.4644 12.3027 13.5235 12.2221C13.8486 11.7893 14.0101 11.1419 14.0101 10.2897C14.0101 8.71601 13.4712 7.93143 12.3928 7.93143C11.8652 7.93143 11.4523 8.12918 11.1564 8.52856C10.8341 8.96465 10.6698 9.6088 10.6698 10.4578C10.6698 11.2933 10.8133 11.9039 11.1007 12.2962C11.3645 12.6453 11.76 12.8231 12.2904 12.8231C12.4868 12.8231 12.6685 12.7961 12.8327 12.7394L13.8261 13.4035L14.0984 12.8669L14.0944 12.8663ZM11.625 11.7989C11.4551 11.4904 11.373 10.9937 11.373 10.309C11.373 9.11152 11.6897 8.51439 12.3253 8.51439C12.6566 8.51439 12.9025 8.65868 13.0577 8.94404C13.2248 9.25581 13.3097 9.74601 13.3097 10.4237C13.3097 11.6282 12.9902 12.2357 12.3574 12.2357C12.0233 12.2357 11.7802 12.0914 11.6222 11.806L11.625 11.7989ZM10.3824 11.4369C10.3824 11.8395 10.2536 12.1719 9.99256 12.4263C9.73493 12.6846 9.39179 12.8154 8.95528 12.8154C8.54802 12.8154 8.15819 12.6679 7.77456 12.3722L7.95344 11.9632C8.28138 12.1513 8.57727 12.2453 8.84728 12.2453C9.09647 12.2453 9.29279 12.1816 9.43342 12.0572C9.57405 11.9297 9.65899 11.7519 9.65899 11.5271C9.65899 11.245 9.4863 11.0034 9.17241 10.8024C8.88215 10.6182 8.29938 10.2388 8.29938 10.2388C7.98269 9.97404 7.82743 9.6919 7.82743 9.22553C7.82743 8.83969 7.94444 8.53114 8.17901 8.29602C8.41639 8.05446 8.7179 7.93723 9.0931 7.93723C9.46638 7.93351 9.83231 8.05609 10.145 8.28958L9.98413 8.69862C9.73278 8.57187 9.46166 8.50461 9.18704 8.50086C8.97328 8.50086 8.80902 8.56141 8.69483 8.67865C8.58064 8.79588 8.51033 8.94339 8.51033 9.12827C8.51033 9.41041 8.6864 9.65196 9.00816 9.85938C9.30404 10.0436 9.89862 10.4333 9.89862 10.4333C10.2238 10.6948 10.3852 10.977 10.3852 11.4363L10.3824 11.4369ZM17.4172 6.40801C17.0156 6.3977 16.7051 6.44472 16.4446 6.57226C16.3715 6.60576 16.2511 6.60576 16.2393 6.71333C16.2804 6.76036 16.286 6.83444 16.3214 6.89756C16.3828 7.01158 16.4857 7.16617 16.5825 7.24669C16.6882 7.34074 16.7934 7.43479 16.902 7.51531C17.0983 7.65315 17.3182 7.73367 17.5112 7.87088C17.6197 7.9514 17.7311 8.05511 17.8391 8.13949C17.8948 8.18329 17.9297 8.26059 18 8.287V8.27025C17.9646 8.22001 17.9561 8.14593 17.9207 8.08603C17.8706 8.0287 17.8211 7.97845 17.7711 7.92177C17.6244 7.69873 17.4485 7.50297 17.2496 7.34138C17.0887 7.21706 16.7371 7.0425 16.6725 6.83121L16.6635 6.81769C16.772 6.80738 16.9008 6.76036 17.006 6.72686C17.1759 6.67662 17.334 6.68628 17.51 6.63604C17.5908 6.61203 17.6709 6.58518 17.7502 6.55552V6.50527C17.6597 6.40156 17.5922 6.26049 17.4982 6.16323C17.2394 5.90385 16.9631 5.66822 16.6719 5.45852C16.5138 5.34129 16.3147 5.26721 16.1476 5.16994C16.0891 5.13645 15.9868 5.1197 15.9541 5.06237C15.8636 4.93483 15.8107 4.77057 15.746 4.61919C15.5988 4.2917 15.4621 3.95825 15.3359 3.61946C15.2454 3.39465 15.1925 3.17307 15.0811 2.965C14.5653 1.98847 14.0028 1.39842 13.1415 0.81804C12.957 0.696939 12.7343 0.646695 12.4997 0.582924C12.3737 0.576482 12.2505 0.566176 12.1245 0.559735C12.0424 0.519153 11.9636 0.412223 11.8933 0.358114C11.6064 0.150053 10.8678 -0.296346 10.6597 0.294343C10.5247 0.669885 10.8588 1.03576 10.9764 1.22386C11.0613 1.35784 11.1699 1.506 11.2312 1.65351C11.2667 1.754 11.2751 1.85835 11.3105 1.96206C11.3899 2.21392 11.4658 2.49542 11.5715 2.73053C11.6272 2.85163 11.6857 2.97853 11.7561 3.08611C11.7971 3.14988 11.8674 3.17693 11.8821 3.28064C11.8117 3.39788 11.8061 3.56922 11.7679 3.71029C11.5862 4.36089 11.6565 5.16286 11.9113 5.64275C11.9934 5.78704 12.1836 6.10268 12.439 5.98158C12.6645 5.87787 12.615 5.55193 12.6791 5.26334C12.6938 5.19313 12.6848 5.14933 12.7146 5.10231V5.11583C12.7877 5.27687 12.858 5.43147 12.9227 5.59251C13.0752 5.87465 13.3474 6.16645 13.573 6.36098C13.6934 6.46469 13.7867 6.64312 13.9364 6.70625V6.6895H13.9246C13.8925 6.63926 13.8514 6.61542 13.8104 6.57549C13.7154 6.46773 13.6272 6.35234 13.5465 6.23022C13.3384 5.90814 13.1511 5.55257 12.9868 5.18669C12.9077 5.00591 12.8355 4.8213 12.7703 4.63336C12.741 4.56637 12.741 4.46202 12.691 4.42852C12.615 4.55284 12.5036 4.65977 12.4508 4.81759C12.354 5.06237 12.345 5.3677 12.3073 5.68333C12.2899 5.68977 12.2983 5.68333 12.2899 5.69686C12.129 5.64984 12.0733 5.46174 12.0143 5.30071C11.8618 4.89167 11.8382 4.23721 11.9676 3.76762C12.003 3.64652 12.1521 3.26776 12.0936 3.15374C12.0615 3.04295 11.9619 2.97918 11.9091 2.89221C11.8416 2.78464 11.7741 2.64744 11.7274 2.52634C11.607 2.20426 11.5485 1.84869 11.4169 1.52661C11.3584 1.3791 11.2526 1.2245 11.1677 1.0873C11.0709 0.932699 10.9657 0.822549 10.892 0.640898C10.8656 0.577127 10.8307 0.473418 10.8718 0.405782C10.8808 0.358758 10.901 0.34201 10.9421 0.328483C11.0068 0.264712 11.1941 0.345231 11.2588 0.381948C11.4433 0.465688 11.5985 0.546207 11.7538 0.667308C11.8241 0.724638 11.9001 0.831567 11.9912 0.861842H12.0969C12.2578 0.902424 12.4367 0.872149 12.5863 0.925614C12.853 1.02288 13.0932 1.16395 13.3097 1.3179C13.972 1.80475 14.5106 2.48283 14.8713 3.28386C14.9326 3.41462 14.959 3.53572 15.0147 3.67293C15.1171 3.95829 15.2493 4.243 15.3545 4.51484C15.4597 4.78667 15.5598 5.06172 15.7117 5.28653C15.7876 5.40763 16.0869 5.47076 16.2241 5.53131C16.3237 5.58478 16.479 5.6318 16.5667 5.69235C16.7394 5.81345 16.9093 5.95066 17.0707 6.08464C17.1528 6.14841 17.402 6.2927 17.4167 6.40672L17.4172 6.40801Z" fill="white"/>
</svg>
