<svg width="12" height="12" viewBox="0 0 12 12" fill="none" xmlns="http://www.w3.org/2000/svg">
<path fill-rule="evenodd" clip-rule="evenodd" d="M12 12H0V0H12V12ZM9.52523 5.08627V4.15556C9.37195 4.08731 8.49419 3.83623 7.80075 4.10084C6.80184 4.48198 6.83773 5.63018 7.21678 6.08081C7.70791 6.66469 8.92964 6.88238 8.72972 7.45547C8.62619 7.75223 8.14289 7.80389 7.7168 7.70426C7.32 7.61149 6.975 7.37646 6.975 7.37646V8.36189C6.975 8.36189 7.31602 8.55202 7.73456 8.59725C8.27112 8.65521 8.94368 8.54576 9.28062 8.24627C9.88038 7.71314 9.97249 6.53212 8.83589 5.98371C7.89007 5.52738 7.90563 5.39714 7.91227 5.16307C7.92117 4.84957 8.57939 4.65659 9.52523 5.08627ZM4.42477 2.47441C5.21173 2.50179 6.36825 2.86448 6.36825 4.41105C6.36825 5.95762 4.95323 6.46512 3.66209 6.35454V8.54437H2.70023V2.49492C2.70023 2.49492 3.63778 2.44704 4.42477 2.47441ZM4.67454 5.39648C5.08929 5.24515 5.35887 4.91981 5.35887 4.41445C5.35887 3.87865 5.08453 3.51581 4.66495 3.41332C4.21059 3.3023 3.66209 3.36773 3.66209 3.36773V5.47814C3.66209 5.47814 4.42134 5.48887 4.67454 5.39648Z" fill="white"/>
</svg>
