<svg width="13" height="10" viewBox="0 0 13 10" fill="none" xmlns="http://www.w3.org/2000/svg">
<path d="M9.68112 10C7.54913 10 6.73733 9.49438 6.73733 8.64851C6.73106 8.50906 6.7553 8.36987 6.80866 8.23897C6.86201 8.10807 6.94343 7.98806 7.0482 7.88586C7.15297 7.78367 7.27902 7.70131 7.41907 7.64355C7.55912 7.58579 7.7104 7.55377 7.86416 7.54934V7.42843C7.62698 7.38041 7.41586 7.25848 7.26754 7.08385C7.11921 6.90921 7.04307 6.69294 7.05236 6.47264C7.05236 5.87909 7.60919 5.58232 8.21502 5.46141V5.41744C7.85883 5.27813 7.5579 5.04364 7.35235 4.74524C7.1468 4.44683 7.04638 4.09868 7.06447 3.74719C7.06447 2.58208 7.97269 1.80215 9.68112 1.80215C10.0545 1.79641 10.4265 1.84464 10.7832 1.94504V1.75818C10.7649 1.64658 10.7753 1.53266 10.8136 1.42529C10.8518 1.31792 10.9168 1.22001 11.0036 1.13917C11.0903 1.05833 11.1965 0.99675 11.3138 0.959225C11.4311 0.921699 11.5564 0.909241 11.6798 0.922819H12.6607V1.99952H11.3163V2.15341C11.6285 2.30853 11.8861 2.54035 12.0596 2.82226C12.2331 3.10417 12.3155 3.42474 12.2972 3.74719C12.2972 4.90084 11.4006 5.67025 9.68059 5.67025C9.35419 5.67436 9.02851 5.64113 8.71127 5.57133C8.58848 5.60716 8.48027 5.67541 8.4005 5.76736C8.32073 5.85931 8.27302 5.97076 8.26348 6.08746C8.26348 6.37372 8.53005 6.51613 9.08688 6.51613H10.7832C12.3336 6.51613 13 7.12067 13 8.15388C13 9.35149 12.1034 10 9.68112 10ZM10.4682 7.7362H8.31195C8.20786 7.80314 8.12356 7.89231 8.0665 7.99584C8.00944 8.09936 7.98138 8.21405 7.9848 8.32975C7.9848 8.76941 8.3483 9.03321 9.31762 9.03321H10.092C11.0982 9.03321 11.546 8.80239 11.546 8.31876C11.546 7.95556 11.2557 7.7362 10.4682 7.7362ZM10.8195 3.83513V3.64827C10.8195 3.06571 10.4197 2.76894 9.68112 2.76894C8.94254 2.76894 8.54216 3.06523 8.54216 3.64827V3.83465C8.54216 4.40621 8.94201 4.71398 9.68112 4.71398C10.4202 4.71398 10.819 4.40621 10.819 3.83465L10.8195 3.83513ZM0 7.67025V0H3.80354C5.36658 0 6.31114 0.955795 6.31114 2.37372C6.31114 3.80263 5.36605 4.74743 3.80354 4.74743H1.59938V7.67025H0ZM1.59938 3.49438H3.65867C3.78978 3.5087 3.92275 3.49636 4.04795 3.45827C4.17314 3.42017 4.28742 3.35728 4.3825 3.27414C4.47757 3.191 4.55105 3.08971 4.59762 2.97762C4.64418 2.86552 4.66265 2.74542 4.6517 2.62605V2.12043C4.66234 2.00161 4.64353 1.88214 4.59666 1.77077C4.54979 1.6594 4.47605 1.55895 4.38084 1.47679C4.28562 1.39463 4.17134 1.33284 4.04639 1.29594C3.92143 1.25905 3.78895 1.24798 3.65867 1.26356H1.59886L1.59938 3.49438Z" fill="white"/>
</svg>
