<svg width="12" height="12" viewBox="0 0 12 12" fill="none" xmlns="http://www.w3.org/2000/svg">
<path d="M11.78 4.51327C11.5738 3.68562 11.1827 3.06154 10.3497 3.06154H9.27562V4.33114C9.27562 5.31682 8.43993 6.14715 7.48639 6.14715H4.62576C3.84365 6.14715 3.19545 6.81677 3.19545 7.60156V10.3283C3.19545 11.105 3.87043 11.5604 4.62576 11.7827C5.53109 12.0478 6.4016 12.0961 7.48639 11.7827C8.2069 11.5737 8.9167 11.1532 8.9167 10.3283V9.23811H6.05875V8.87384H10.3497C11.1827 8.87384 11.4907 8.29261 11.78 7.4221C12.08 6.52481 12.0666 5.66234 11.78 4.51327ZM7.66585 9.96398C7.96316 9.96398 8.20422 10.2077 8.20422 10.5077C8.20422 10.8104 7.96316 11.0541 7.66585 11.0541C7.37121 11.0541 7.12747 10.8077 7.12747 10.5077C7.13015 10.205 7.37121 9.96398 7.66585 9.96398ZM4.49452 5.78823H7.35514C8.15065 5.78823 8.78545 5.132 8.78545 4.33382V1.60444C8.78545 0.827685 8.1319 0.246455 7.35514 0.115209C6.39624 -0.0428211 5.35431 -0.0347856 4.49452 0.117888C3.28384 0.332166 3.06421 0.779472 3.06421 1.60712V2.69726H5.92751V3.06154H1.99014C1.15713 3.06154 0.428578 3.56241 0.200907 4.51327C-0.0615851 5.60342 -0.072299 6.28375 0.200907 7.4221C0.404471 8.2685 0.889277 8.87384 1.72229 8.87384H2.70529V7.56674C2.70529 6.62124 3.52223 5.78823 4.49452 5.78823ZM4.31506 1.96872C4.01775 1.96872 3.77668 1.72498 3.77668 1.42499C3.77936 1.12232 4.01775 0.878576 4.31506 0.878576C4.60969 0.878576 4.85344 1.125 4.85344 1.42499C4.85344 1.72498 4.61237 1.96872 4.31506 1.96872Z" fill="white"/>
</svg>
