<svg width="86" height="86" viewBox="0 0 86 86" fill="none" xmlns="http://www.w3.org/2000/svg">
<path d="M72.7354 34.5204C72.5165 18.281 59.2914 5.18188 42.9996 5.18188C26.7082 5.18188 13.4831 18.281 13.2642 34.5204H72.7354Z" fill="#00DFD5"/>
<path d="M73.5807 35.355H12.418L12.4296 34.5088C12.6545 17.8777 26.368 4.34729 43 4.34729C59.632 4.34729 73.3455 17.8777 73.57 34.5088L73.5807 35.355ZM14.1225 33.6858H71.8767C71.2213 18.3524 58.4409 6.01655 43 6.01655C27.5591 6.01655 14.7787 18.3524 14.1225 33.6858Z" fill="#6C0000"/>
<path d="M13.2539 34.3678H72.7457V39.2578H13.2539V34.3678Z" fill="#FFBD00"/>
<path d="M73.5807 40.0919H12.4193V33.5331H73.5807V40.0919ZM14.0885 38.4226H71.911V35.2023H14.0885V38.4226Z" fill="#6C0000"/>
<path d="M76.0055 39.2448H9.99405C6.28057 39.2448 3.27057 42.2548 3.27057 45.9682C3.27057 49.6817 6.28057 52.6917 9.99405 52.6917H16.0364C16.036 52.7132 16.03 52.7334 16.03 52.7553V55.0472C16.03 55.7362 16.3036 56.3969 16.7908 56.8841C17.2779 57.3712 17.9387 57.6449 18.6276 57.6449C19.3165 57.6449 19.9772 57.3712 20.4644 56.8841C20.9515 56.3969 21.2252 55.7362 21.2252 55.0472V52.7553C21.2252 52.7334 21.2192 52.7132 21.2188 52.6917H64.7808C64.7804 52.7132 64.7743 52.7334 64.7743 52.7553V55.0472C64.7743 55.7362 65.048 56.3969 65.5352 56.8841C66.0223 57.3712 66.683 57.6449 67.372 57.6449C68.0609 57.6449 68.7216 57.3712 69.2088 56.8841C69.6959 56.3969 69.9696 55.7362 69.9696 55.0472V52.7553C69.9696 52.7334 69.9636 52.7132 69.9632 52.6917H76.0055C79.719 52.6917 82.729 49.6817 82.729 45.9682C82.729 42.2548 79.719 39.2448 76.0055 39.2448Z" fill="#ECF3FE"/>
<path d="M67.372 58.4796C65.4791 58.4796 63.9397 56.9402 63.9397 55.0473V53.526H22.0556L22.0594 55.0473C22.0594 56.9402 20.52 58.4796 18.6272 58.4796C16.7343 58.4796 15.1949 56.9402 15.1949 55.0473V53.526H9.99405C5.82692 53.526 2.43594 50.135 2.43594 45.9679C2.43594 41.8008 5.82692 38.4098 9.99405 38.4098H76.0059C80.1731 38.4098 83.564 41.8008 83.564 45.9679C83.564 50.135 80.1731 53.526 76.0059 53.526H70.8004L70.8042 55.0473C70.8042 56.9402 69.2648 58.4796 67.372 58.4796ZM21.2188 51.8568H65.6421L65.609 55.0473C65.609 56.02 66.3993 56.8103 67.372 56.8103C68.3446 56.8103 69.135 56.02 69.135 55.0473V51.9208L69.9636 51.8572H76.0059C79.2529 51.8572 81.8948 49.2153 81.8948 45.9683C81.8948 42.7214 79.2529 40.0795 76.0059 40.0795H9.99405C6.74712 40.0795 4.1052 42.7214 4.1052 45.9683C4.1052 49.2153 6.74712 51.8572 9.99405 51.8572H16.8973L16.8642 55.0478C16.8642 56.0204 17.6545 56.8108 18.6272 56.8108C19.5998 56.8108 20.3902 56.0204 20.3902 55.0478V51.9213L21.2188 51.8568Z" fill="#6C0000"/>
<path d="M26.7641 46.1334C26.7641 46.8491 27.0484 47.5355 27.5545 48.0416C28.0606 48.5477 28.747 48.8321 29.4627 48.8321C30.1785 48.8321 30.8649 48.5477 31.371 48.0416C31.8771 47.5355 32.1614 46.8491 32.1614 46.1334C32.1614 45.4176 31.8771 44.7312 31.371 44.2251C30.8649 43.719 30.1785 43.4347 29.4627 43.4347C28.747 43.4347 28.0606 43.719 27.5545 44.2251C27.0484 44.7312 26.7641 45.4176 26.7641 46.1334Z" fill="white"/>
<path d="M29.4628 49.5279C27.591 49.5279 26.0683 48.0052 26.0683 46.1334C26.0683 44.2616 27.591 42.739 29.4628 42.739C31.3345 42.739 32.8572 44.2616 32.8572 46.1334C32.8572 48.0052 31.3345 49.5279 29.4628 49.5279ZM29.4628 44.1301C28.3577 44.1301 27.4594 45.0288 27.4594 46.1334C27.4594 47.2381 28.3581 48.1368 29.4628 48.1368C30.5674 48.1368 31.4661 47.2381 31.4661 46.1334C31.4661 45.0288 30.5679 44.1301 29.4628 44.1301Z" fill="#6C0000"/>
<path d="M40.3009 46.1334C40.3009 46.8491 40.5852 47.5355 41.0913 48.0416C41.5974 48.5477 42.2838 48.8321 42.9996 48.8321C43.7153 48.8321 44.4017 48.5477 44.9078 48.0416C45.4139 47.5355 45.6983 46.8491 45.6983 46.1334C45.6983 45.4176 45.4139 44.7312 44.9078 44.2251C44.4017 43.719 43.7153 43.4347 42.9996 43.4347C42.2838 43.4347 41.5974 43.719 41.0913 44.2251C40.5852 44.7312 40.3009 45.4176 40.3009 46.1334Z" fill="white"/>
<path d="M43 49.5279C41.1282 49.5279 39.6056 48.0052 39.6056 46.1334C39.6056 44.2616 41.1282 42.739 43 42.739C44.8709 42.739 46.3936 44.2616 46.3936 46.1334C46.3936 48.0052 44.8709 49.5279 43 49.5279ZM43 44.1301C41.8949 44.1301 40.9966 45.0288 40.9966 46.1334C40.9966 47.2381 41.8953 48.1368 43 48.1368C44.1042 48.1368 45.0029 47.2381 45.0029 46.1334C45.0029 45.0288 44.1042 44.1301 43 44.1301Z" fill="#6C0000"/>
<path d="M53.8377 46.1334C53.8377 46.8491 54.122 47.5355 54.6281 48.0416C55.1342 48.5477 55.8207 48.8321 56.5364 48.8321C57.2521 48.8321 57.9385 48.5477 58.4446 48.0416C58.9507 47.5355 59.2351 46.8491 59.2351 46.1334C59.2351 45.4176 58.9507 44.7312 58.4446 44.2251C57.9385 43.719 57.2521 43.4347 56.5364 43.4347C55.8207 43.4347 55.1342 43.719 54.6281 44.2251C54.122 44.7312 53.8377 45.4176 53.8377 46.1334Z" fill="white"/>
<path d="M56.5364 49.5279C54.6646 49.5279 53.142 48.0052 53.142 46.1334C53.142 44.2616 54.6646 42.739 56.5364 42.739C58.4082 42.739 59.9308 44.2616 59.9308 46.1334C59.9308 48.0052 58.4082 49.5279 56.5364 49.5279ZM56.5364 44.1301C55.4313 44.1301 54.533 45.0288 54.533 46.1334C54.533 47.2381 55.4317 48.1368 56.5364 48.1368C57.6415 48.1368 58.5398 47.2381 58.5398 46.1334C58.5398 45.0288 57.6415 44.1301 56.5364 44.1301Z" fill="#6C0000"/>
<path d="M26.9038 80.6938H74.1479C74.1479 80.6938 75.7462 74.1935 72.6171 71.3942C69.488 68.5944 65.5359 68.9238 65.5359 68.9238C65.5359 68.9238 64.1646 64.2458 60.8424 63.1601C56.5605 61.7604 53.1024 64.5597 53.1024 64.5597C53.1024 64.5597 49.8912 59.7016 45.2799 59.9484C40.0072 60.2309 37.7045 64.3125 37.7045 64.3125C37.7045 64.3125 33.9992 60.6072 28.647 62.6656C23.2948 64.724 23.2123 70.2409 23.2123 70.2409C23.2123 70.2409 18.0505 69.1109 15.1429 72.3819C12.5078 75.3463 13.2492 80.6159 13.2492 80.6159L26.9038 80.6938Z" fill="#BED5E9"/>
<path d="M74.8024 81.5289H26.9038L12.5233 81.4467L12.4227 80.7321C12.39 80.5012 11.6599 75.0436 14.5194 71.8281C16.942 69.1036 20.7157 69.1027 22.4701 69.2889C22.7487 67.4898 23.8659 63.6108 28.3482 61.8869C29.5182 61.4367 30.7076 61.2084 31.8832 61.2084C34.5311 61.2084 36.519 62.3474 37.5368 63.093C38.559 61.7846 41.0168 59.3417 45.2356 59.1156C49.2328 58.9092 52.1607 62.0034 53.2942 63.4198C54.2527 62.8329 56.0978 61.9333 58.3944 61.9333C59.312 61.9333 60.2232 62.0795 61.103 62.3668C64.0696 63.3373 65.6064 66.6861 66.1293 68.0802C67.5147 68.1081 70.5858 68.4564 73.1744 70.7724C76.6372 73.8706 75.0298 80.6082 74.9593 80.8933L74.8024 81.5289ZM14.0124 79.7861L26.9085 79.8596H73.4651C73.7489 78.2441 74.2494 73.9742 72.0611 72.0164C69.7709 69.9683 67.0129 69.7469 65.9332 69.7469C65.7362 69.7469 65.6193 69.755 65.6029 69.7563L64.93 69.8084L64.7356 69.1599C64.7236 69.1169 63.4418 64.8874 60.5836 63.953C59.8769 63.721 59.1378 63.6027 58.394 63.6026C55.6674 63.6026 53.6455 65.1945 53.6253 65.2099L52.9141 65.7793L52.4067 65.0212C52.3774 64.9769 49.3894 60.5728 45.3246 60.7822C40.5984 61.0355 38.5164 64.5753 38.43 64.7253L37.8873 65.6722L37.1146 64.9033C37.0961 64.8849 35.0244 62.878 31.8823 62.878C30.9127 62.878 29.9246 63.069 28.9463 63.4452C24.1755 65.28 24.0469 70.2053 24.0465 70.2543L24.031 71.2721L23.0347 71.0575C23.017 71.0528 18.3004 70.0883 15.7659 72.9366C13.9561 74.9731 13.9268 78.3271 14.0124 79.7861Z" fill="#6C0000"/>
</svg>
